<svg width="629" height="504" viewBox="0 0 629 504" fill="none" xmlns="http://www.w3.org/2000/svg">
<g opacity="0.1">
<path opacity="0.1" d="M278.091 503.317L563.698 337.575L357.207 217.719L71.5996 383.46L278.091 503.317Z" fill="black"/>
</g>
<path d="M248.027 392.559V405.217L318.44 445.96V433.697L248.027 392.559Z" fill="#091B2D"/>
<path d="M318.44 433.697V445.96L471.133 358.144V345.486L318.44 433.697Z" fill="#091B2D"/>
<path d="M248.027 392.559L318.44 433.697L471.133 345.486L400.72 304.743L248.027 392.559Z" fill="#ADD3EA"/>
<path d="M513.064 11.234C507.13 7.67396 501.196 4.50944 495.263 0.949356C492.494 -0.632904 488.933 -0.237339 484.978 2.13605L502.779 12.4207C507.13 10.0474 510.69 10.0474 513.064 11.234Z" fill="#C3DFF4"/>
<path d="M513.063 11.234L495.262 0.949276C494.866 0.553711 494.471 0.553711 494.075 0.553711L511.876 10.8384C512.272 10.8384 512.667 11.234 513.063 11.234Z" fill="#091B2D"/>
<path d="M511.876 10.8385L494.471 0.553768C494.075 0.553768 493.68 0.158203 493.284 0.158203L511.085 10.4429C511.481 10.8385 511.876 10.8385 511.876 10.8385Z" fill="#091B2D"/>
<path d="M511.085 10.4429L493.284 0.158203C492.889 0.158203 492.889 0.158203 492.493 0.158203L510.294 10.4429C510.294 10.4429 510.69 10.4429 511.085 10.4429Z" fill="#091B2D"/>
<path d="M510.294 10.4429L492.493 0.158203C492.098 0.158203 492.098 0.158203 491.702 0.158203L509.503 10.4429C509.899 10.4429 509.899 10.4429 510.294 10.4429Z" fill="#091B2D"/>
<path d="M509.503 10.4429L491.702 0.158203C491.307 0.158203 491.307 0.158203 490.911 0.158203L508.712 10.4429C509.108 10.4429 509.108 10.4429 509.503 10.4429Z" fill="#091B2D"/>
<path d="M508.712 10.4429L491.307 0.158203C490.911 0.158203 490.911 0.158203 490.516 0.158203L508.317 10.4429H508.712Z" fill="#091B2D"/>
<path d="M508.317 10.4429L490.516 0.158203C490.12 0.158203 490.12 0.158203 489.725 0.158203L507.526 10.4429C507.921 10.4429 507.921 10.4429 508.317 10.4429Z" fill="#091B2D"/>
<path d="M507.526 10.4429L489.725 0.158203H489.329L507.13 10.4429C507.13 10.8385 507.13 10.8385 507.526 10.4429Z" fill="#091B2D"/>
<path d="M506.734 10.8384L488.933 0.553711C488.933 0.553711 488.537 0.553711 488.142 0.553711L505.943 10.8384C506.734 10.8384 506.734 10.8384 506.734 10.8384Z" fill="#091B2D"/>
<path d="M506.338 10.8384L488.537 0.553711C488.142 0.553711 488.142 0.553711 488.142 0.553711L505.943 10.8384H506.338Z" fill="#091B2D"/>
<path d="M505.943 11.2339L488.142 0.949219C488.142 0.949219 487.746 0.949219 487.746 1.34478L505.547 11.6295C505.547 11.2339 505.547 11.2339 505.943 11.2339Z" fill="#091B2D"/>
<path d="M505.152 11.2339L487.351 0.949219C486.955 0.949219 486.955 0.949219 486.955 1.34478L504.756 11.6295L505.152 11.2339Z" fill="#091B2D"/>
<path d="M504.756 11.6294L486.955 1.34473C486.56 1.34473 486.56 1.34473 486.56 1.74029L504.361 12.025C504.361 11.6294 504.361 11.6294 504.756 11.6294Z" fill="#091B2D"/>
<path d="M503.965 12.0249L486.164 1.74023L485.769 2.1358L503.57 12.4205C503.57 12.0249 503.965 12.0249 503.965 12.0249Z" fill="#091B2D"/>
<path d="M503.57 12.0249L485.769 1.74023C485.769 1.74023 485.373 1.74023 485.373 2.1358L503.174 12.4205C503.174 12.4205 503.174 12.0249 503.57 12.0249Z" fill="#091B2D"/>
<path d="M188.295 404.03V428.951C188.295 430.137 188.295 430.928 188.691 432.115C188.691 432.906 189.086 433.697 189.482 434.488C189.877 435.28 190.273 435.675 190.669 436.071L191.064 436.466C191.46 436.862 192.251 437.257 192.646 437.653L174.845 427.368C174.45 426.973 173.659 426.577 173.263 426.182L172.868 425.786C172.868 425.39 172.472 425.39 172.472 424.995C172.076 424.599 172.076 424.204 172.076 424.204C172.076 423.808 171.681 423.808 171.681 423.413C171.681 423.017 171.681 423.017 171.285 422.621C171.285 422.226 171.285 422.226 170.89 421.83V421.435V421.039C170.89 420.644 170.89 420.644 170.89 420.248C170.89 419.853 170.89 419.853 170.89 419.457C170.89 419.061 170.89 419.061 170.89 418.666C170.89 418.27 170.89 418.27 170.89 417.875V392.954L188.295 404.03Z" fill="#091B2D"/>
<path d="M320.418 405.613L263.455 401.657L307.76 375.945L320.418 405.613Z" fill="#2C455F"/>
<path d="M329.12 303.161L314.484 294.459L306.177 396.91L320.418 405.613L329.12 303.161Z" fill="#C0CDD2"/>
<path d="M412.192 255.298L397.556 246.596L314.484 294.459L329.121 303.162L412.192 255.298Z" fill="#85A9FF"/>
<path d="M329.121 303.161L320.418 405.613L418.126 349.047L412.192 255.298L329.121 303.161Z" fill="#DEE7EB"/>
<path d="M384.106 332.037L320.418 405.613L418.126 349.047L412.192 255.298L384.106 332.037Z" fill="white"/>
<path d="M517.811 213.368L500.406 203.083L170.494 393.745L188.295 404.03L517.811 213.368Z" fill="#DCC9A0"/>
<path d="M504.361 28.2437L486.956 17.959L487.352 195.963L505.153 206.248L504.361 28.2437Z" fill="#584245"/>
<path d="M505.153 206.248L487.352 195.963L185.922 370.012L203.327 380.296L505.153 206.248Z" fill="#62494D"/>
<path d="M188.295 404.03V428.951C188.295 438.049 194.624 441.609 202.536 437.258L503.57 263.605C511.482 258.858 517.811 247.782 517.811 238.684V213.764L188.295 404.03Z" fill="#ADD3EA"/>
<path d="M202.932 202.292L203.327 380.296L505.153 206.247L504.362 28.2432L202.932 202.292Z" fill="#2BA9E1"/>
<path d="M203.327 376.34L501.593 204.269L501.197 30.2207L202.932 202.292L203.327 376.34Z" fill="#8FD9F9"/>
<path d="M202.931 202.292L185.13 192.007L185.921 370.011L203.326 380.296L202.931 202.292Z" fill="#82B3B8"/>
<path d="M504.361 28.2437L486.955 17.959L185.13 192.008L202.931 202.292L504.361 28.2437Z" fill="#92C8CE"/>
<path d="M187.504 210.995L170.099 200.71L170.494 393.746L188.295 404.03L187.504 210.995Z" fill="#091B2D"/>
<path d="M502.779 12.4204L485.373 2.13574L184.339 175.789L201.744 186.074L502.779 12.4204Z" fill="#091B2D"/>
<path d="M502.779 12.4203C510.691 7.67354 517.02 11.6292 517.02 20.7272L517.416 213.763L187.504 404.03L187.108 210.994C187.108 201.896 193.438 190.82 201.349 186.073L502.779 12.4203ZM203.327 380.296L504.757 206.247L504.361 28.2429L202.931 202.292L203.327 380.296Z" fill="white"/>
<path d="M170.099 200.71C170.099 200.314 170.099 200.314 170.099 199.919C170.099 199.523 170.099 199.523 170.099 199.127C170.099 198.732 170.099 198.732 170.099 198.336C170.099 197.941 170.099 197.941 170.099 197.545C170.099 197.15 170.099 197.15 170.099 196.754C170.099 196.358 170.099 196.358 170.099 195.963C170.099 195.567 170.099 195.567 170.099 195.172C170.099 194.776 170.099 194.776 170.099 194.381C170.099 193.985 170.099 193.985 170.099 193.589V193.194C170.099 192.798 170.099 192.798 170.494 192.403C170.494 192.007 170.494 192.007 170.89 191.612C170.89 191.216 170.89 191.216 171.285 190.821C171.285 190.425 171.285 190.425 171.681 190.029C171.681 190.029 171.681 189.634 172.077 189.634C172.077 189.238 172.472 189.238 172.472 188.843C172.472 188.447 172.868 188.447 172.868 188.052C172.868 187.656 173.263 187.656 173.263 187.26C173.263 186.865 173.659 186.469 173.659 186.469C173.659 186.469 173.659 186.469 173.659 186.074C174.054 185.678 174.45 184.887 174.846 184.491C175.241 184.096 175.241 183.7 175.637 183.305C176.032 182.909 176.032 182.909 176.428 182.514C176.428 182.118 176.823 182.118 176.823 181.723C176.823 181.327 177.219 181.327 177.219 180.931C177.219 180.536 177.615 180.536 177.615 180.14L178.01 179.745C178.406 179.349 178.406 179.349 178.801 179.349C179.197 178.954 179.197 178.954 179.592 178.558C179.988 178.558 179.988 178.162 180.384 178.162C180.384 178.162 180.779 178.162 180.779 177.767C180.779 177.767 180.779 177.767 181.175 177.371C181.57 177.371 181.57 176.976 181.966 176.976C182.362 176.976 182.362 176.58 182.757 176.58C182.757 176.58 183.153 176.185 183.548 176.185C183.548 176.185 183.944 175.789 184.339 175.789L201.745 186.074C200.954 186.469 199.767 187.26 198.976 188.052C198.185 188.843 197.393 189.634 196.207 190.425C195.416 191.216 194.624 192.403 193.833 193.194C193.042 194.381 192.251 195.172 191.855 196.358C190.669 198.732 189.482 201.105 188.691 203.479C188.295 204.665 187.9 205.852 187.9 207.039C187.9 208.225 187.504 209.412 187.504 210.599L170.099 200.71Z" fill="#C3DFF4"/>
<path d="M376.59 308.304C380.546 305.93 384.106 307.908 384.106 312.655C384.106 317.402 380.941 322.939 376.986 325.313C373.03 327.686 369.865 325.708 369.47 320.962C369.47 316.215 372.634 310.677 376.59 308.304Z" fill="#476F99"/>
<path d="M376.195 308.303C380.15 305.93 383.315 307.908 383.315 312.259C383.315 316.61 380.15 322.148 376.195 324.126C372.239 326.499 369.074 324.522 369.074 320.17C369.47 315.819 372.634 310.281 376.195 308.303Z" fill="#2BA9E1"/>
<path d="M232.204 204.27C235.368 202.293 238.137 203.875 238.137 207.831C238.137 211.786 235.368 216.137 232.204 218.115C229.039 220.093 226.27 218.511 226.27 214.555C225.875 210.599 228.644 205.853 232.204 204.27Z" fill="#2BA9E1"/>
<path d="M247.236 195.172C250.401 193.194 253.17 194.776 253.17 198.732C253.17 202.688 250.401 207.039 247.236 209.017C244.072 210.994 241.303 209.412 241.303 205.852C241.303 201.896 244.072 197.15 247.236 195.172Z" fill="#2BA9E1"/>
<path d="M262.664 186.47C265.828 184.492 268.597 186.074 268.597 190.03C268.597 193.985 265.828 198.337 262.664 200.314C259.499 202.292 256.73 200.71 256.73 196.754C256.334 193.194 259.104 188.447 262.664 186.47Z" fill="#2BA9E1"/>
<path d="M526.513 46.0439V49.604L506.734 61.0754V57.5153L526.513 46.0439Z" fill="#DDF4FE"/>
<path d="M526.513 39.3193V42.8794L506.734 54.3508V50.7907L526.513 39.3193Z" fill="#DDF4FE"/>
<path d="M526.513 32.1992V35.7593L506.734 47.2307V43.6706L526.513 32.1992Z" fill="#DDF4FE"/>
<path d="M215.985 204.27L537.985 18.3545V51.1864L215.985 237.102V204.27ZM247.236 209.017C250.401 207.039 253.17 202.292 253.17 198.732C253.17 194.777 250.401 193.194 247.236 195.172C244.071 197.15 241.302 201.897 241.302 205.852C241.302 209.412 244.071 210.995 247.236 209.017ZM232.204 218.115C235.369 216.137 238.138 211.39 238.138 207.83C238.138 203.875 235.369 202.292 232.204 204.27C229.039 206.248 226.27 210.995 226.27 214.555C225.875 218.115 228.644 219.697 232.204 218.115ZM262.663 200.314C265.828 198.337 268.597 193.59 268.597 190.03C268.597 186.074 265.828 184.492 262.663 186.47C259.499 188.447 256.73 193.194 256.73 196.754C256.334 200.71 259.103 202.292 262.663 200.314ZM526.514 35.7594V32.1993L506.735 43.6707V47.2307L526.514 35.7594ZM526.514 49.6041V46.0441L506.735 57.5154V61.0755L526.514 49.6041ZM526.514 42.8795V39.3194L506.735 50.7908V54.3509L526.514 42.8795Z" fill="white"/>
<path d="M185.922 255.297L179.593 251.737L185.922 255.297Z" fill="#2D509E"/>
<path d="M185.922 255.297L179.593 251.737L185.922 255.297Z" fill="#2E53A3"/>
<path d="M186.318 255.297L179.988 251.737L186.318 255.297Z" fill="#3055A8"/>
<path d="M186.318 255.297L179.988 251.737L186.318 255.297Z" fill="#3158AD"/>
<path d="M186.713 255.297L180.384 251.737C180.384 251.737 180.384 251.737 180.779 251.737L186.713 255.297Z" fill="#325AB3"/>
<path d="M186.713 255.297L180.384 251.737C180.384 251.737 180.384 251.737 180.779 251.737L186.713 255.297Z" fill="#345DB8"/>
<path d="M187.109 255.297L180.779 251.737C180.779 251.737 180.779 251.737 181.175 251.737L187.109 255.297Z" fill="#355FBD"/>
<path d="M187.109 255.297L180.779 251.737H181.175L187.109 255.297C187.504 255.297 187.504 255.297 187.109 255.297Z" fill="#3762C2"/>
<path d="M187.504 255.297L181.175 251.737H181.57L187.9 255.297H187.504Z" fill="#3865C7"/>
<path d="M187.9 255.297L181.57 251.737C181.57 251.737 181.966 251.737 181.966 251.342L188.295 254.902L187.9 255.297Z" fill="#3A67CC"/>
<path d="M188.295 254.902L181.966 251.342C182.361 250.946 182.757 250.946 183.153 250.551L189.482 254.111C189.086 254.506 188.691 254.902 188.295 254.902Z" fill="#3A67CC"/>
<path d="M189.482 254.111L183.152 250.551L183.548 250.155L189.877 253.715C189.877 253.715 189.877 254.111 189.482 254.111Z" fill="#3865C7"/>
<path d="M189.877 253.715L183.548 250.155C183.548 250.155 183.548 249.76 183.943 249.76L189.877 253.715C190.273 253.32 189.877 253.715 189.877 253.715Z" fill="#3762C2"/>
<path d="M190.273 253.32L183.943 249.76C183.943 249.76 183.943 249.364 184.339 249.364L190.273 253.32C190.273 252.924 190.273 253.32 190.273 253.32Z" fill="#355FBD"/>
<path d="M190.273 252.924L183.943 249.364C183.943 249.364 183.943 249.364 183.943 248.969L190.273 252.924C190.668 252.924 190.668 252.924 190.273 252.924Z" fill="#345DB8"/>
<path d="M190.668 252.529L184.339 248.969C184.339 248.969 184.339 248.969 184.339 248.573L190.668 252.529Z" fill="#325AB3"/>
<path d="M190.668 252.529L184.339 248.969C184.339 248.969 184.339 248.969 184.339 248.573L190.668 252.529C191.064 252.133 190.668 252.133 190.668 252.529Z" fill="#3158AD"/>
<path d="M191.064 252.133L184.734 248.573C184.734 248.573 184.734 248.573 184.734 248.178L191.064 252.133Z" fill="#3055A8"/>
<path d="M191.064 251.738L184.734 248.178V247.782L191.064 251.738Z" fill="#2E53A3"/>
<path d="M191.064 251.738L184.734 248.178V247.782L191.064 251.738C191.459 251.342 191.459 251.342 191.064 251.738Z" fill="#2D509E"/>
<path d="M191.46 251.342L185.131 247.782V247.387L191.46 251.342C191.46 250.947 191.46 250.947 191.46 251.342Z" fill="#2B4D99"/>
<path d="M191.46 250.947L185.131 247.387V246.991L191.46 250.947C191.46 250.551 191.46 250.947 191.46 250.947Z" fill="#2A4B94"/>
<path d="M191.46 250.551L185.131 246.991V246.596L191.46 250.551C191.46 250.156 191.46 250.551 191.46 250.551Z" fill="#28488F"/>
<path d="M191.46 250.155L185.131 246.595V246.199L191.46 249.759C191.856 249.759 191.856 250.155 191.46 250.155Z" fill="#27468A"/>
<path d="M191.855 249.76L185.526 246.2C185.526 245.804 185.526 245.804 185.526 245.409C185.526 244.222 185.13 243.431 184.339 243.035L190.668 246.595C191.459 246.991 191.855 247.782 191.855 248.969C191.855 249.364 191.855 249.364 191.855 249.76Z" fill="#254385"/>
<path d="M179.593 260.045L173.264 256.485C173.659 256.089 174.055 256.089 174.45 255.693L180.78 259.253C180.384 259.649 179.988 260.045 179.593 260.045Z" fill="#3A67CC"/>
<path d="M180.779 259.253L174.45 255.693L174.846 255.298L181.175 258.858L180.779 259.253Z" fill="#3865C7"/>
<path d="M181.175 258.858L174.846 255.298C174.846 255.298 174.846 254.902 175.241 254.902L181.175 258.858C181.175 258.462 181.175 258.858 181.175 258.858Z" fill="#3762C2"/>
<path d="M181.57 258.463L175.241 254.902C175.241 254.902 175.241 254.507 175.637 254.507L181.57 258.463C181.57 258.067 181.57 258.463 181.57 258.463Z" fill="#355FBD"/>
<path d="M181.57 258.067L175.241 254.507C175.241 254.507 175.241 254.507 175.241 254.111L181.57 258.067C181.966 258.067 181.57 258.067 181.57 258.067Z" fill="#345DB8"/>
<path d="M181.966 257.671L175.637 254.111C175.637 254.111 175.637 254.111 175.637 253.716L181.966 257.671Z" fill="#325AB3"/>
<path d="M181.966 257.671L175.637 254.111C175.637 254.111 175.637 254.111 175.637 253.716L181.966 257.671C182.362 257.276 181.966 257.671 181.966 257.671Z" fill="#3158AD"/>
<path d="M182.362 257.276L176.033 253.716C176.033 253.716 176.033 253.716 176.033 253.32L182.362 257.276Z" fill="#3055A8"/>
<path d="M182.362 256.88L176.033 253.32C176.033 253.32 176.033 253.32 176.033 252.925L182.362 256.88Z" fill="#2E53A3"/>
<path d="M182.362 256.88L176.033 253.32V252.925L182.362 256.88C182.758 256.485 182.362 256.485 182.362 256.88Z" fill="#2D509E"/>
<path d="M182.758 256.485L176.429 252.925V252.529L182.758 256.485C182.758 256.089 182.758 256.089 182.758 256.485Z" fill="#2B4D99"/>
<path d="M182.758 256.089L176.429 252.529V252.134L182.758 256.089C182.758 255.694 182.758 256.089 182.758 256.089Z" fill="#2A4B94"/>
<path d="M182.758 255.694L176.429 252.134V251.738L182.758 255.694C182.758 255.298 182.758 255.694 182.758 255.694Z" fill="#28488F"/>
<path d="M182.758 255.297L176.429 251.737V251.342L182.758 254.902C183.154 254.902 183.154 255.297 182.758 255.297Z" fill="#27468A"/>
<path d="M183.153 254.902L176.823 251.342C176.823 250.947 176.823 250.947 176.823 250.551C176.823 249.364 176.428 248.573 175.637 248.178L181.966 251.738C182.757 252.133 183.153 252.925 183.153 254.111C183.153 254.507 183.153 254.507 183.153 254.902Z" fill="#254385"/>
<path d="M179.593 252.133L173.264 248.573C173.264 248.573 173.659 248.573 173.659 248.178L179.988 251.738C179.988 252.133 179.593 252.133 179.593 252.133Z" fill="#752289"/>
<path d="M179.988 252.133L173.659 248.573H174.055L180.384 252.133C180.384 251.738 180.384 251.738 179.988 252.133Z" fill="#722285"/>
<path d="M180.384 251.738L174.055 248.178H174.45L180.384 251.738C180.78 251.738 180.384 251.738 180.384 251.738Z" fill="#6F2182"/>
<path d="M180.779 251.738L174.45 248.178C174.45 248.178 174.45 248.178 174.846 248.178L180.779 251.738Z" fill="#6C207F"/>
<path d="M181.175 251.738L174.846 248.178C174.846 248.178 174.846 248.178 175.241 248.178L181.175 251.738Z" fill="#691F7B"/>
<path d="M181.175 251.738L174.846 248.178C174.846 248.178 174.846 248.178 175.241 248.178L181.175 251.738C181.571 251.738 181.175 251.738 181.175 251.738Z" fill="#661E78"/>
<path d="M181.57 251.738L175.241 248.178L181.57 251.738Z" fill="#631D74"/>
<path d="M181.57 251.738L175.241 248.178L181.57 251.738Z" fill="#601C71"/>
<path d="M181.966 251.738L175.637 248.178L181.966 251.738Z" fill="#5D1C6D"/>
<path d="M181.966 252.133L175.637 248.178L181.966 252.133Z" fill="#5B1B6A"/>
<path d="M177.219 260.44L170.89 256.88C170.099 256.485 169.703 255.694 169.703 254.507C169.703 254.111 169.703 254.111 169.703 253.716L176.032 257.276C176.032 257.671 176.032 257.671 176.032 258.067C176.428 259.254 176.428 260.045 177.219 260.44Z" fill="#4C1659"/>
<path d="M176.428 257.671L170.099 254.111V253.716L176.428 257.276C176.428 257.276 176.428 257.276 176.428 257.671Z" fill="#4F175C"/>
<path d="M176.428 256.88L170.099 253.32V252.925L176.428 256.88Z" fill="#521860"/>
<path d="M176.428 256.485L170.099 252.925V252.529L176.428 256.485Z" fill="#551963"/>
<path d="M176.428 256.484L170.099 252.528V252.133L176.428 256.484C176.428 256.089 176.428 256.089 176.428 256.484Z" fill="#581A67"/>
<path d="M176.823 256.089L170.099 252.528V252.133L176.823 256.089C176.823 255.693 176.823 255.693 176.823 256.089Z" fill="#5B1B6A"/>
<path d="M176.823 255.693L170.494 252.133V251.737L176.823 255.693C176.823 255.297 176.823 255.693 176.823 255.693Z" fill="#5D1C6D"/>
<path d="M176.823 255.297L170.494 251.737C170.494 251.737 170.494 251.737 170.494 251.342L176.823 255.297Z" fill="#601C71"/>
<path d="M177.219 254.902L170.89 251.342V250.946L177.219 254.902Z" fill="#631D74"/>
<path d="M177.219 254.902L170.89 251.342C170.89 251.342 170.89 251.342 170.89 250.946L177.219 254.902C177.219 254.506 177.219 254.506 177.219 254.902Z" fill="#661E78"/>
<path d="M177.219 254.506L170.89 250.946C170.89 250.946 170.89 250.551 171.285 250.551L177.219 254.506C177.614 254.111 177.614 254.506 177.219 254.506Z" fill="#691F7B"/>
<path d="M177.614 254.111L171.285 250.551C171.285 250.551 171.285 250.155 171.681 250.155L177.614 254.111Z" fill="#6C207F"/>
<path d="M177.614 253.715L171.285 250.155C171.285 250.155 171.285 249.76 171.681 249.76L177.614 253.715C178.01 253.715 178.01 253.715 177.614 253.715Z" fill="#6F2182"/>
<path d="M178.01 253.715L171.681 250.155L172.076 249.76L178.405 253.32C178.405 253.32 178.01 253.32 178.01 253.715Z" fill="#722285"/>
<path d="M178.405 252.924L172.076 249.364C172.472 248.969 172.867 248.573 173.263 248.573L179.592 252.133C179.197 252.529 178.801 252.924 178.405 252.924Z" fill="#752289"/>
<path d="M168.517 265.583L162.188 262.022L168.517 265.583Z" fill="#2D509E"/>
<path d="M168.517 265.583L162.188 262.022L168.517 265.583Z" fill="#2E53A3"/>
<path d="M168.517 265.583L162.188 262.022L168.517 265.583C168.912 265.583 168.912 265.583 168.517 265.583Z" fill="#3055A8"/>
<path d="M168.912 265.583L162.583 262.022L168.912 265.583Z" fill="#3158AD"/>
<path d="M168.912 265.583L162.583 262.022C162.583 262.022 162.583 262.022 162.979 262.022L168.912 265.583C169.308 265.583 169.308 265.583 168.912 265.583Z" fill="#325AB3"/>
<path d="M169.308 265.583L162.979 262.022C162.979 262.022 162.979 262.022 163.374 262.022L169.308 265.583Z" fill="#345DB8"/>
<path d="M169.703 265.583L163.374 262.022C163.374 262.022 163.374 262.022 163.77 262.022L169.703 265.583Z" fill="#355FBD"/>
<path d="M169.703 265.583L163.374 262.022H163.77L169.703 265.583C170.099 265.583 169.703 265.583 169.703 265.583Z" fill="#3762C2"/>
<path d="M170.099 265.583L163.77 262.022H164.165L170.494 265.583H170.099Z" fill="#3865C7"/>
<path d="M170.494 265.583L164.165 262.023C164.165 262.023 164.561 262.023 164.561 261.627L170.89 265.187L170.494 265.583Z" fill="#3A67CC"/>
<path d="M170.89 265.187L164.561 261.627C164.956 261.231 165.352 261.231 165.747 260.836L172.077 264.396C171.681 264.792 171.285 265.187 170.89 265.187Z" fill="#3A67CC"/>
<path d="M172.076 264.396L165.747 260.836L166.143 260.44L172.472 264.001L172.076 264.396Z" fill="#3865C7"/>
<path d="M172.472 264.001L166.143 260.441C166.143 260.441 166.143 260.045 166.538 260.045L172.472 264.001C172.472 263.605 172.472 264.001 172.472 264.001Z" fill="#3762C2"/>
<path d="M172.867 263.605L166.538 260.045C166.538 260.045 166.538 259.649 166.934 259.649L172.867 263.605Z" fill="#355FBD"/>
<path d="M172.867 263.21L166.538 259.649C166.538 259.649 166.538 259.649 166.538 259.254L172.867 263.21C173.263 263.21 172.867 263.21 172.867 263.21Z" fill="#345DB8"/>
<path d="M173.263 262.814L166.934 259.254C166.934 259.254 166.934 259.254 166.934 258.858L173.263 262.814Z" fill="#325AB3"/>
<path d="M173.263 262.814L166.934 259.254C166.934 259.254 166.934 259.254 166.934 258.858L173.263 262.814C173.263 262.418 173.263 262.418 173.263 262.814Z" fill="#3158AD"/>
<path d="M173.659 262.419L167.33 258.858C167.33 258.858 167.33 258.858 167.33 258.463L173.659 262.419Z" fill="#3055A8"/>
<path d="M173.659 262.023L167.33 258.463C167.33 258.463 167.33 258.463 167.33 258.067L173.659 262.023Z" fill="#2E53A3"/>
<path d="M173.659 262.023L167.33 258.463V258.067L173.659 262.023C174.055 261.627 173.659 261.627 173.659 262.023Z" fill="#2D509E"/>
<path d="M174.055 261.628L167.726 258.067V257.672L174.055 261.628C174.055 261.232 174.055 261.232 174.055 261.628Z" fill="#2B4D99"/>
<path d="M174.055 261.232L167.726 257.672V257.276L174.055 261.232C174.055 260.836 174.055 261.232 174.055 261.232Z" fill="#2A4B94"/>
<path d="M174.055 260.837L167.726 257.276V256.881L174.055 260.837C174.055 260.441 174.055 260.837 174.055 260.837Z" fill="#28488F"/>
<path d="M174.055 260.44L167.726 256.88V256.484L174.055 260.044C174.45 260.044 174.055 260.44 174.055 260.44Z" fill="#27468A"/>
<path d="M174.45 260.045L168.12 256.485C168.12 256.089 168.12 256.089 168.12 255.694C168.12 254.507 167.725 253.716 166.934 253.32L173.263 256.88C174.054 257.276 174.45 258.067 174.45 259.254C174.45 259.649 174.45 259.649 174.45 260.045Z" fill="#254385"/>
<path d="M312.111 167.482C315.671 165.505 318.44 167.087 318.44 171.042V185.283L159.418 278.636V264.396C159.418 260.44 162.187 255.298 165.747 253.32L312.111 167.482ZM188.295 254.902C190.273 253.716 191.855 250.947 191.46 248.969C191.46 246.991 189.877 245.804 187.9 246.991C185.922 248.178 184.339 250.947 184.339 252.924C185.13 255.298 186.713 256.089 188.295 254.902ZM179.592 260.045C181.57 258.858 183.153 256.089 183.153 254.111C183.153 251.738 181.57 250.947 179.592 252.133C177.615 253.32 176.032 256.089 176.032 258.067C176.428 260.44 177.615 261.231 179.592 260.045ZM170.89 265.187C172.868 264 174.45 261.231 174.45 259.253C174.45 256.88 172.868 256.089 170.89 257.276C168.912 258.462 167.33 261.231 167.33 263.209C167.33 265.582 168.912 266.374 170.89 265.187Z" fill="#2BA9E1"/>
<path d="M188.295 246.991C190.273 245.804 191.855 246.595 191.855 248.968C191.855 250.946 190.273 253.715 188.691 254.902C186.713 256.088 185.13 255.297 185.13 252.924C184.735 250.946 186.317 248.177 188.295 246.991Z" fill="white"/>
<path d="M179.592 252.133C181.57 250.946 183.153 251.738 183.153 254.111C183.153 256.089 181.57 258.858 179.592 260.044C177.615 261.231 176.032 260.44 176.032 258.067C176.032 256.089 177.615 253.32 179.592 252.133Z" fill="white"/>
<path d="M170.889 257.276C172.867 256.089 174.449 256.88 174.449 259.253C174.449 261.231 172.867 264 170.889 265.187C168.911 266.374 167.329 265.583 167.329 263.209C167.329 261.231 168.911 258.462 170.889 257.276Z" fill="white"/>
<path d="M159.418 264.792V279.032L318.44 185.283L319.627 292.481C319.627 296.437 316.858 301.579 313.298 303.557L166.934 389.79C163.374 391.768 160.605 390.186 160.605 386.23L159.418 264.792Z" fill="#CEECF9"/>
<path d="M267.411 295.25V300.392L173.264 354.98V349.442L267.411 295.25Z" fill="white"/>
<path d="M267.411 282.987V288.525L173.264 342.718V337.575L267.411 282.987Z" fill="white"/>
<path d="M267.016 271.121V276.659L173.264 330.851V325.313L267.016 271.121Z" fill="white"/>
<path d="M267.016 243.035V248.573L173.264 302.765V297.228L267.016 243.035Z" fill="white"/>
<path d="M267.016 255.298V260.44L173.264 314.633V309.49L267.016 255.298Z" fill="white"/>
<path d="M306.178 252.529V276.659L273.74 295.25V271.516L306.178 252.529Z" fill="white"/>
<path d="M306.178 220.488V244.618L273.74 263.209L273.345 239.475L306.178 220.488Z" fill="white"/>
<path opacity="0.1" d="M470.737 126.343V115.267C470.737 110.125 467.177 108.147 462.825 110.916L397.951 148.495C393.599 150.868 390.039 156.802 390.039 161.944V173.02L390.435 292.876C390.435 298.018 393.995 299.996 398.346 297.227L463.221 259.648C467.572 257.275 471.132 251.342 471.132 246.199L470.737 126.343ZM399.137 178.558L399.533 286.151L399.137 178.558ZM430.784 258.857L437.904 254.902L430.784 258.857V264.791V258.857Z" fill="black"/>
<path d="M395.577 166.296L476.275 119.619L476.67 239.475C476.67 244.618 473.11 250.551 468.759 252.925L403.884 290.503C399.533 292.877 395.973 290.899 395.973 286.152L395.577 166.296ZM429.597 265.187L429.201 157.593L404.28 171.834L404.675 279.427L429.597 265.187ZM467.572 212.181V162.34L436.322 180.536V230.377L467.572 212.181ZM467.572 226.817V220.884L436.322 239.08V245.013L467.572 226.817ZM467.177 141.771V135.837L435.926 154.033V159.967L467.177 141.771ZM467.572 240.267V234.333L436.322 252.529V258.463L467.572 240.267ZM467.177 155.22V149.287L435.926 167.483V173.416L467.177 155.22Z" fill="white"/>
<path d="M404.675 146.517C406.653 145.33 408.236 146.121 408.236 148.495C408.236 150.868 406.653 153.637 404.675 154.824C402.698 156.01 401.115 155.219 401.115 152.846C401.115 150.473 402.698 147.704 404.675 146.517Z" fill="white"/>
<path d="M416.147 139.792C418.125 138.606 419.707 139.397 419.707 141.77C419.707 144.143 418.125 146.912 416.147 148.099C414.169 149.286 412.587 148.495 412.587 146.121C412.587 143.748 414.169 140.979 416.147 139.792Z" fill="white"/>
<path d="M467.572 234.333V240.266L436.321 258.067V252.133L467.572 234.333Z" fill="#DDF4FE"/>
<path d="M467.926 221.353V227.286L436.676 245.482V239.153L467.926 221.353Z" fill="#DDF4FE"/>
<path d="M467.531 162.413L467.926 212.65L436.676 230.45L436.28 180.609L467.531 162.413Z" fill="#DDF4FE"/>
<path d="M467.531 149.756V155.689L436.28 173.49V167.556L467.531 149.756Z" fill="#DDF4FE"/>
<path d="M467.531 136.307V142.24L436.28 160.041V154.107L467.531 136.307Z" fill="#DDF4FE"/>
<path d="M468.718 104.661C473.069 102.288 476.629 104.265 476.629 109.012V120.088L395.932 166.765V155.689C395.932 150.547 399.492 144.613 403.843 142.24L468.718 104.661ZM416.502 148.569C418.48 147.382 420.062 144.613 420.062 142.24C420.062 139.866 418.48 139.075 416.502 140.262C414.524 141.449 412.941 144.217 412.941 146.591C412.941 148.964 414.524 149.755 416.502 148.569ZM405.03 155.293C407.008 154.107 408.59 151.338 408.59 148.964C408.59 146.591 407.008 145.8 405.03 146.986C403.052 148.173 401.47 150.942 401.47 153.315C401.47 155.689 403.052 156.48 405.03 155.293Z" fill="#2BA9E1"/>
<path d="M429.951 158.062V265.656L405.425 279.897L405.029 172.698L429.951 158.062Z" fill="#DDF4FE"/>
<path d="M380.947 231.858C380.947 227.902 378.178 226.32 374.618 228.298L349.697 242.538C346.136 244.516 343.367 249.263 343.367 253.218V255.592L342.181 256.383L343.367 257.965V264.69L342.181 267.459L343.367 268.25V281.699C343.367 285.655 346.136 287.237 349.697 285.259L374.618 271.019C378.178 269.041 380.947 264.294 380.947 260.339V231.858Z" fill="white"/>
<path d="M376.985 228.399C377.381 228.399 377.777 228.399 378.172 228.003C378.568 228.003 378.963 228.003 379.359 228.003C379.754 228.003 380.15 228.003 380.15 228.399L373.821 224.839H373.425H373.03C373.03 224.839 373.03 224.839 372.634 224.839H372.238H371.843C371.843 224.839 371.843 224.839 371.447 224.839H371.052C371.052 224.839 371.052 224.839 370.656 224.839C370.656 224.839 370.656 224.839 370.261 224.839C370.261 224.839 370.261 224.839 369.865 224.839C369.469 224.839 369.469 225.234 369.074 225.234L344.152 239.475C343.361 239.87 342.57 240.266 342.175 241.057C342.175 241.057 342.175 241.453 341.779 241.453C341.779 241.453 341.779 241.848 341.383 241.848C341.383 242.244 340.988 242.244 340.988 242.639L340.592 243.035L340.197 243.43L339.801 243.826C339.801 243.826 339.801 244.222 339.406 244.222C339.406 244.222 339.406 244.617 339.01 244.617C339.01 244.617 339.01 245.013 338.614 245.013C338.614 245.013 338.614 245.408 338.219 245.408C338.219 245.408 338.219 245.804 337.823 246.199V246.595C337.823 246.595 337.823 246.595 337.823 246.991C337.823 247.386 337.823 247.386 337.823 247.782C337.823 248.177 337.823 248.177 337.823 248.573C337.823 248.968 337.823 249.364 337.823 249.759V278.24C337.823 280.218 338.614 281.8 339.801 282.196L346.13 285.756C344.944 284.965 344.152 283.778 344.152 281.8V253.32C344.152 252.133 344.152 251.342 344.548 250.155C344.944 248.968 345.339 248.177 345.735 246.991C346.13 246.199 346.922 245.013 347.713 244.222C348.504 243.43 349.295 242.639 350.086 242.244L375.008 228.003C376.194 228.795 376.59 228.795 376.985 228.399Z" fill="#091B2D"/>
<path d="M490.121 93.5114L542.337 62.6573C543.523 61.8662 544.71 62.6573 544.71 63.844V68.9864L487.747 102.609V97.467C487.747 96.2803 488.934 94.3025 490.121 93.5114Z" fill="#2BA9E1"/>
<path d="M487.747 97.467V102.609L544.71 68.9863L545.106 107.356C545.106 108.938 544.315 110.521 542.732 111.312L490.516 142.166C489.329 142.957 488.143 142.166 488.143 140.979L487.747 97.467Z" fill="white"/>
<path d="M502.384 99.8406V103.005L534.426 84.8091V81.249L502.384 99.8406Z" fill="#DDF4FE"/>
<path d="M502.384 106.961V110.125L534.426 91.9292V88.3691L502.384 106.961Z" fill="#DDF4FE"/>
<path d="M502.384 116.454V119.618L534.426 101.422V97.8623L502.384 116.454Z" fill="#DDF4FE"/>
<path d="M502.384 123.574V126.739L534.426 108.543V104.982L502.384 123.574Z" fill="#DDF4FE"/>
<path d="M490.12 157.198L542.337 126.344C543.523 125.553 544.71 126.344 544.71 127.531V132.673L488.143 166.296V161.154C488.143 159.571 488.934 157.989 490.12 157.198Z" fill="#2BA9E1"/>
<path d="M488.143 161.154V166.296L545.106 132.673L545.501 171.043C545.501 172.625 544.71 174.207 543.128 174.998L490.912 205.852C489.725 206.644 488.538 205.852 488.538 204.666L488.143 161.154Z" fill="white"/>
<path d="M502.383 163.132V166.692L534.425 148.1V144.54L502.383 163.132Z" fill="#DDF4FE"/>
<path d="M502.383 170.252V173.812L534.425 155.22V151.66L502.383 170.252Z" fill="#DDF4FE"/>
<path d="M502.383 179.745V183.305L534.425 164.713V161.153L502.383 179.745Z" fill="#DDF4FE"/>
<path d="M502.383 186.865V190.425L534.425 171.834V168.273L502.383 186.865Z" fill="#DDF4FE"/>
<g opacity="0.1">
<path opacity="0.1" d="M608.398 392.559C634.506 407.59 634.902 432.511 608.794 447.542C582.686 462.574 540.359 462.574 513.855 447.542C487.747 432.511 487.352 407.59 513.46 392.559C539.568 377.527 582.29 377.527 608.398 392.559Z" fill="black"/>
</g>
<path d="M566.862 411.942C566.467 411.942 549.061 411.546 553.017 417.876C555.391 422.227 558.951 423.018 561.72 423.018C564.489 423.018 569.236 421.436 570.422 422.227C571.609 423.018 577.543 426.974 581.103 423.018C581.894 422.227 582.29 419.853 581.894 418.271C581.103 417.084 568.84 411.546 566.862 411.942Z" fill="#258AB7"/>
<path d="M553.018 418.27C555.391 422.621 558.951 423.413 561.72 423.413C564.489 423.413 569.236 421.83 570.423 422.621C571.61 423.413 577.543 427.368 581.104 423.413C581.499 423.017 581.895 422.226 581.895 421.039C579.521 424.599 573.588 423.413 572.005 422.226C570.028 421.039 567.654 420.248 565.281 420.644C562.907 421.039 558.16 420.644 555.391 418.27C553.809 416.688 553.809 415.106 554.204 413.919C552.622 414.71 551.831 416.292 553.018 418.27Z" fill="#2BA9E1"/>
<path d="M575.565 271.516C575.565 271.516 590.201 293.272 579.52 324.917C577.147 331.641 572.4 346.277 573.982 353.398C575.96 362.1 578.334 359.727 580.312 388.207C581.894 413.523 581.894 407.986 582.289 418.27C582.289 421.039 571.609 424.204 570.027 419.852C562.906 400.074 553.017 358.935 554.995 335.993C556.973 313.05 558.159 292.085 558.159 292.085C558.159 292.085 568.444 278.24 575.565 271.516Z" fill="#091B2D"/>
<path d="M533.634 423.809C533.238 423.809 515.042 419.853 518.206 427.369C520.184 432.116 523.744 433.698 526.513 434.489C529.283 434.885 534.425 434.489 535.612 435.28C536.798 436.467 542.337 441.609 546.292 438.049C547.084 437.258 547.875 434.885 547.875 433.302C547.479 431.72 536.007 423.809 533.634 423.809Z" fill="#258AB7"/>
<path d="M518.207 427.369C520.185 432.116 523.745 433.698 526.514 434.489C529.283 434.884 534.426 434.489 535.612 435.28C536.799 436.467 542.337 441.609 546.293 438.049C546.689 437.653 547.084 436.862 547.48 435.676C544.315 438.84 538.381 436.862 537.195 435.28C535.612 433.698 532.843 432.511 530.47 432.511C528.096 432.511 522.954 430.929 520.58 428.16C519.394 426.182 519.789 424.6 520.185 423.413C518.602 423.809 517.416 424.995 518.207 427.369Z" fill="#2BA9E1"/>
<path d="M570.423 292.48C570.423 292.48 582.29 305.139 560.929 337.575C560.929 337.575 550.644 360.518 551.039 368.033C551.435 376.736 554.995 377.527 551.435 406.403C548.27 431.324 549.852 432.115 547.875 434.093C545.897 436.466 535.612 434.093 535.216 429.742C533.238 405.217 529.282 369.22 531.656 346.673C534.029 320.566 536.007 299.205 536.007 299.205C536.007 299.205 562.511 297.623 570.423 292.48Z" fill="#091B2D"/>
<path d="M531.656 346.278C529.282 369.22 533.238 404.821 535.216 429.346C535.216 431.324 537.59 432.906 539.963 433.697C539.172 415.106 537.985 380.692 537.59 358.54C537.194 335.597 545.501 309.49 549.853 297.623C542.732 298.414 536.403 298.81 536.403 298.81C536.403 298.81 534.425 320.17 531.656 346.278Z" fill="#091B2D"/>
<path d="M566.466 233.542C566.466 233.542 565.28 223.653 574.774 223.257C585.059 222.862 582.685 244.222 582.685 244.222C582.685 244.222 582.29 262.418 580.707 267.956C578.334 275.472 565.28 295.25 565.28 295.25C565.28 295.25 559.346 294.063 557.368 289.712C557.368 289.712 567.653 271.121 568.84 264.396C569.631 256.485 566.071 235.124 566.466 233.542Z" fill="#2BA9E1"/>
<path d="M565.28 295.25C565.28 295.25 578.334 275.472 580.707 267.956C582.29 262.418 582.685 244.222 582.685 244.222C582.685 244.222 586.245 224.048 574.774 222.862C570.027 222.466 569.235 224.444 568.444 226.026C575.96 226.422 576.752 231.169 575.96 242.244C575.169 254.111 576.751 257.671 576.356 267.561C575.565 277.845 565.28 287.734 563.697 290.108C562.511 291.69 560.137 289.712 558.555 288.13C558.159 288.921 557.764 289.317 557.764 289.317C559.346 294.063 565.28 295.25 565.28 295.25Z" fill="#2BA9E1"/>
<path d="M535.216 303.557C535.216 303.557 540.359 275.076 535.216 244.617C535.216 244.617 532.447 234.333 550.248 227.212C568.049 220.092 579.126 219.697 579.917 229.586C580.708 239.079 576.357 252.529 575.961 256.88C575.565 273.098 579.917 280.218 583.081 290.503C586.246 301.183 534.425 313.841 535.216 303.557Z" fill="#2BA9E1"/>
<path d="M551.435 214.159C551.435 214.159 554.204 222.07 550.249 226.817C548.271 229.586 568.05 233.937 566.072 225.631C564.489 218.906 567.258 212.972 572.005 207.83L551.435 214.159Z" fill="#FFAA83"/>
<path d="M552.227 219.697C552.227 219.697 556.974 218.51 560.138 216.928H560.534L562.512 217.323L563.303 217.719C563.303 217.719 561.72 226.817 551.435 225.63C550.644 226.026 552.227 222.861 552.227 219.697Z" fill="#F79F7C"/>
<path d="M549.062 182.514C549.062 182.514 547.084 187.26 543.524 196.358C540.359 205.852 537.194 214.159 542.733 218.51C545.897 220.883 562.907 223.257 570.423 203.874C575.17 191.612 564.489 175.789 549.062 182.514Z" fill="#FFAA83"/>
<path d="M549.457 180.536C543.127 182.514 538.381 188.052 547.874 190.821C555.39 193.194 548.666 204.665 551.039 206.643C552.226 207.83 552.226 205.852 556.182 203.083C557.764 201.897 560.928 202.688 559.742 207.039C558.951 210.995 557.368 217.324 559.346 218.51C562.115 220.093 564.884 219.301 567.653 216.137C573.191 210.995 581.498 197.15 573.587 187.261C565.675 177.767 554.599 179.349 549.457 180.536Z" fill="#091B2D"/>
<path d="M495.659 237.102C495.659 237.102 493.681 236.311 491.307 233.542C488.934 230.773 489.329 229.191 488.934 226.817C488.538 224.444 488.538 222.862 489.329 222.466C490.516 221.675 492.889 222.862 494.472 227.609C496.054 232.355 500.405 232.751 501.197 233.938C501.988 234.333 496.845 237.498 495.659 237.102Z" fill="#FFAA83"/>
<path d="M496.449 232.751C496.054 232.356 497.241 230.378 495.263 225.631C494.076 222.071 497.636 226.027 497.636 226.818C498.032 227.609 501.196 233.542 501.196 233.542C501.196 233.542 498.032 233.542 496.449 232.751Z" fill="#FFAA83"/>
<path d="M552.226 241.058C552.622 239.08 552.622 231.169 545.897 230.378C537.59 229.191 518.602 248.574 515.833 248.178C514.251 248.178 501.196 231.169 501.196 231.169C501.196 231.169 501.196 235.52 494.472 237.102C494.472 237.102 507.13 262.418 513.855 261.627C525.722 260.045 549.853 251.342 552.226 241.058Z" fill="#1585B7"/>
<g opacity="0.5">
<g opacity="0.8">
<g opacity="0.8">
<path opacity="0.8" d="M86.6315 69.7773L87.0271 150.077L44.3047 174.602V94.3024L86.6315 69.7773Z" fill="#2BA9E1"/>
</g>
<g opacity="0.8">
<g opacity="0.8">
<path opacity="0.8" d="M166.933 49.6035V78.8753L99.2891 117.641V88.7644L166.933 49.6035Z" fill="#2BA9E1"/>
</g>
<g opacity="0.8">
<path opacity="0.8" d="M35.6016 89.5554L172.471 10.4424L172.867 107.751L35.6016 186.864V89.5554ZM87.0266 150.077L86.631 69.3816L43.9087 93.9066L44.3043 174.602L87.0266 150.077ZM166.933 78.8751V49.9989L99.6851 88.7643V117.641L166.933 78.8751ZM166.538 42.0876V23.496L99.2895 62.2614V80.853L166.538 42.0876ZM166.933 103.796V85.5997L99.6851 124.365V142.561L166.933 103.796Z" fill="white"/>
</g>
<g opacity="0.8">
<path opacity="0.8" d="M166.934 85.9951V103.796L99.6855 142.956V124.76L166.934 85.9951Z" fill="#2BA9E1"/>
</g>
<g opacity="0.8">
<path opacity="0.8" d="M166.537 23.4961V42.0877L99.2891 81.2486V62.2615L166.537 23.4961Z" fill="#2BA9E1"/>
</g>
</g>
<g opacity="0.8">
<path opacity="0.8" d="M172.471 0.949219V10.4428L35.6016 89.5558V80.0622L172.471 0.949219Z" fill="#2BA9E1"/>
</g>
</g>
<g opacity="0.5">
<g opacity="0.5">
<path opacity="0.5" d="M42.7222 80.0623C44.3045 79.2712 45.0956 80.0623 45.0956 81.6446C45.0956 83.2268 43.9089 85.2047 42.7222 85.9958C41.1399 86.7869 40.3487 85.9958 39.9531 84.4135C39.9531 82.8313 41.1399 80.8534 42.7222 80.0623Z" fill="#2BA9E1"/>
</g>
<g opacity="0.5">
<path opacity="0.5" d="M49.0514 76.1063C50.6337 75.3151 51.4248 76.1063 51.8204 77.6885C51.8204 79.2708 50.6337 81.2486 49.4469 82.0397C47.8646 82.8309 47.0735 82.0397 47.0735 80.4575C46.6779 78.8752 47.469 77.293 49.0514 76.1063Z" fill="#2BA9E1"/>
</g>
<g opacity="0.5">
<path opacity="0.5" d="M55.3803 72.5467C56.9626 71.7556 57.7538 72.5467 57.7538 74.129C57.7538 75.7112 56.567 77.689 55.3803 78.4802C53.798 79.2713 53.0068 78.4802 53.0068 76.8979C53.0068 75.3156 54.1936 73.3378 55.3803 72.5467Z" fill="#2BA9E1"/>
</g>
<g opacity="0.5">
<path opacity="0.5" d="M168.12 12.8164V14.3987L159.813 19.1454L159.417 17.5632L168.12 12.8164Z" fill="#2BA9E1"/>
</g>
<g opacity="0.5">
<path opacity="0.5" d="M168.12 9.65137V11.2336L159.417 16.376V14.7937L168.12 9.65137Z" fill="#2BA9E1"/>
</g>
<g opacity="0.5">
<path opacity="0.5" d="M168.12 6.88281V8.46507L159.417 13.2119V11.6296L168.12 6.88281Z" fill="#2BA9E1"/>
</g>
<g opacity="0.5">
<path opacity="0.5" d="M35.6016 80.0622L172.867 0.949219V15.1896L35.6016 94.3026V80.0622ZM49.0512 82.0401C50.6335 81.2489 51.8202 79.2711 51.4247 77.6888C51.4247 76.1066 50.2379 75.3155 48.6556 76.1066C47.0733 76.8977 46.2822 78.8755 46.2822 80.4578C46.6777 82.4356 47.4689 82.8312 49.0512 82.0401ZM42.722 85.9957C44.3043 85.2046 45.0954 83.2267 45.0954 81.6445C45.0954 80.0622 43.9087 79.2711 42.722 80.0622C41.1396 80.8534 40.3485 82.8312 40.3485 84.4134C39.9529 85.9957 41.1396 86.7868 42.722 85.9957ZM55.3804 78.48C56.9627 77.6888 57.7539 75.711 57.7539 74.1288C57.7539 72.5465 56.5672 71.7554 55.3804 72.5465C53.7981 73.3376 52.6114 75.3154 53.007 76.8977C53.007 78.48 54.1937 79.2711 55.3804 78.48ZM168.12 8.46495V6.88269L159.813 11.6295V13.2117L168.12 8.46495ZM168.12 14.3984V12.8162L159.813 17.563V19.1452L168.12 14.3984ZM168.12 11.2339V9.65165L159.813 14.3984V15.9807L168.12 11.2339Z" fill="#D4ECFF"/>
</g>
</g>
</g>
<g opacity="0.5">
<g opacity="0.8">
<g opacity="0.8">
<path opacity="0.8" d="M51.0299 257.275L51.4255 337.575L8.70312 362.1V281.8L51.0299 257.275Z" fill="#2BA9E1"/>
</g>
<g opacity="0.8">
<g opacity="0.8">
<path opacity="0.8" d="M131.331 237.102V266.373L64.0831 305.139L63.6875 276.262L131.331 237.102Z" fill="#2BA9E1"/>
</g>
<g opacity="0.8">
<path opacity="0.8" d="M0 277.053L136.87 197.94L137.265 295.249L0.395577 374.362L0 277.053ZM51.4251 337.575L51.0295 257.275L8.7027 281.8L9.09828 362.496L51.4251 337.575ZM131.332 266.373V237.497L64.0835 276.262V305.139L131.332 266.373ZM131.332 229.586V210.994L64.0835 249.759V268.351L131.332 229.586ZM131.332 291.294V273.098L64.0835 311.863V330.059L131.332 291.294Z" fill="white"/>
</g>
<g opacity="0.8">
<path opacity="0.8" d="M131.332 273.493V291.294L64.084 330.455V312.259L131.332 273.493Z" fill="#2BA9E1"/>
</g>
<g opacity="0.8">
<path opacity="0.8" d="M131.331 210.994V229.586L63.6875 268.747V249.76L131.331 210.994Z" fill="#2BA9E1"/>
</g>
</g>
<g opacity="0.8">
<path opacity="0.8" d="M137.265 188.447V197.941L0 277.054V267.56L137.265 188.447Z" fill="#2BA9E1"/>
</g>
</g>
<g opacity="0.5">
<g opacity="0.5">
<path opacity="0.5" d="M7.12006 267.56C8.70237 266.769 9.49352 267.56 9.49352 269.143C9.49352 270.725 8.30679 272.703 7.12006 273.494C5.53775 274.285 4.74659 273.494 4.74659 271.912C4.35101 270.329 5.53775 268.351 7.12006 267.56Z" fill="#FF66A8"/>
</g>
<g opacity="0.5">
<path opacity="0.5" d="M13.4496 263.604C15.0319 262.813 16.2187 263.604 16.2187 265.187C16.2187 266.769 15.0319 268.747 13.8452 269.538C12.2629 270.329 11.4717 269.538 11.0762 267.956C11.0762 266.373 12.2629 264.791 13.4496 263.604Z" fill="#2BA9E1"/>
</g>
<g opacity="0.5">
<path opacity="0.5" d="M20.1743 260.045C21.7566 259.254 22.5478 260.045 22.5478 261.627C22.5478 263.209 21.361 265.187 20.1743 265.978C18.592 266.769 17.4053 265.978 17.4053 264.396C17.4053 262.814 18.592 260.836 20.1743 260.045Z" fill="#FFB420"/>
</g>
<g opacity="0.5">
<path opacity="0.5" d="M132.518 200.314V201.897L124.211 206.644V205.061L132.518 200.314Z" fill="#2BA9E1"/>
</g>
<g opacity="0.5">
<path opacity="0.5" d="M132.518 197.149V198.732L124.211 203.478V202.292L132.518 197.149Z" fill="#2BA9E1"/>
</g>
<g opacity="0.5">
<path opacity="0.5" d="M132.518 194.381V195.963L124.211 200.71V199.128L132.518 194.381Z" fill="#2BA9E1"/>
</g>
<g opacity="0.5">
<path opacity="0.5" d="M0 267.56L137.265 188.447V202.688L0 281.801V267.56ZM13.4496 269.538C15.0319 268.747 15.8231 266.769 15.8231 265.187C15.8231 263.605 14.6364 262.814 13.0541 263.605C11.4717 264.396 10.6806 266.374 10.6806 267.956C11.0762 269.934 12.2629 270.329 13.4496 269.538ZM7.12039 273.494C8.7027 272.703 9.49386 270.725 9.49386 269.143C9.49386 267.56 8.30713 266.769 7.12039 267.56C5.53808 268.351 4.74693 270.329 4.74693 271.911C4.35135 273.494 5.53808 274.285 7.12039 273.494ZM20.1744 265.978C21.7568 265.187 22.5479 263.209 22.5479 261.627C22.5479 260.045 21.3612 259.253 20.1744 260.045C18.5921 260.836 17.801 262.814 17.801 264.396C17.4054 265.978 18.5921 266.769 20.1744 265.978ZM132.518 195.963V194.381L124.211 199.128V200.71L132.518 195.963ZM132.518 201.896V200.314L124.211 205.061V206.643L132.518 201.896ZM132.518 198.732V197.15L124.211 201.896V203.479L132.518 198.732Z" fill="#2BA9E1"/>
</g>
</g>
</g>
<path d="M200.162 164.713C200.162 159.571 196.602 157.197 191.855 159.966L159.418 178.953C155.066 181.722 151.111 188.051 151.111 193.194V196.358L149.924 197.149L151.111 199.127V207.83L149.528 211.785L151.111 212.577V230.377C151.111 235.519 154.671 237.893 159.418 235.124L191.855 216.137C196.206 213.368 200.162 207.039 200.162 201.896V164.713Z" fill="#2BA9E1"/>
<path d="M193.438 159.176C193.833 159.176 194.229 158.78 194.624 158.78C195.02 158.78 195.415 158.78 195.811 158.78C196.207 158.78 196.602 159.176 196.998 159.176L188.691 154.429C188.691 154.429 188.295 154.429 188.295 154.033H187.899H187.504H187.108H186.713H186.317C185.922 154.033 185.922 154.033 185.526 154.033H185.13C185.13 154.033 185.13 154.033 184.735 154.033H184.339C183.944 154.033 183.548 154.429 183.153 154.429L151.111 174.207C150.32 174.603 149.133 175.394 148.342 176.185L147.946 176.58L147.551 176.976C147.155 177.372 147.155 177.372 146.759 177.767C146.759 178.163 146.364 178.163 146.364 178.558C146.364 178.954 145.968 178.954 145.968 179.349C145.968 179.745 145.573 179.745 145.573 180.14C145.573 180.536 145.177 180.536 145.177 180.932C145.177 181.327 144.782 181.327 144.782 181.723C144.782 182.118 144.386 182.118 144.386 182.514C144.386 182.909 143.99 182.909 143.99 183.305C143.99 183.701 143.99 183.701 143.595 184.096V184.492V184.887C143.595 185.283 143.595 185.678 143.199 185.678C143.199 186.074 143.199 186.47 143.199 186.865C143.199 187.261 143.199 188.052 143.199 188.447V226.026C143.199 228.795 143.99 230.377 145.573 231.168L153.88 235.915C152.298 235.124 151.506 233.146 151.506 230.773V193.194C151.506 192.007 151.902 190.425 152.297 189.238C152.693 188.052 153.484 186.47 153.88 185.283C154.671 184.096 155.462 182.909 156.253 181.723C157.044 180.536 158.231 179.745 159.418 179.349L191.855 160.362C192.251 159.967 192.646 159.571 193.438 159.176C193.438 159.571 193.438 159.571 193.438 159.176Z" fill="#091B2D"/>
<path d="M158.627 106.961V138.211L116.3 163.131L115.904 131.486L158.627 106.961Z" fill="#2BA9E1"/>
<path d="M378.205 166.482C378.205 162.526 375.436 160.944 371.876 162.922L346.954 177.162C343.394 179.14 340.625 183.887 340.625 187.842V190.216L339.438 191.007L340.625 192.589V199.314L339.438 202.083L340.625 202.874V216.323C340.625 220.279 343.394 221.861 346.954 219.883L371.876 205.643C375.436 203.665 378.205 198.918 378.205 194.963V166.482Z" fill="white"/>
<path d="M374.243 163.023C374.639 163.023 375.034 163.023 375.43 162.627C375.826 162.627 376.221 162.627 376.617 162.627C377.012 162.627 377.408 162.627 377.408 163.023L371.079 159.463H370.683H370.287C370.287 159.463 370.287 159.463 369.892 159.463H369.496H369.101C369.101 159.463 369.101 159.463 368.705 159.463H368.31C368.31 159.463 368.31 159.463 367.914 159.463C367.914 159.463 367.914 159.463 367.518 159.463C367.518 159.463 367.518 159.463 367.123 159.463C366.727 159.463 366.727 159.858 366.332 159.858L341.41 174.099C340.619 174.494 339.828 174.89 339.432 175.681C339.432 175.681 339.432 176.077 339.037 176.077C339.037 176.077 339.037 176.472 338.641 176.472C338.641 176.868 338.246 176.868 338.246 177.263L337.85 177.659L337.455 178.054L337.059 178.45C337.059 178.45 337.059 178.846 336.663 178.846C336.663 178.846 336.663 179.241 336.268 179.241C336.268 179.241 336.268 179.637 335.872 179.637C335.872 179.637 335.872 180.032 335.477 180.032C335.477 180.032 335.477 180.428 335.081 180.823V181.219C335.081 181.219 335.081 181.219 335.081 181.615C335.081 182.01 335.081 182.01 335.081 182.406C335.081 182.801 335.081 182.801 335.081 183.197C335.081 183.592 335.081 183.988 335.081 184.383V212.864C335.081 214.842 335.872 216.424 337.059 216.82L343.388 220.38C342.201 219.589 341.41 218.402 341.41 216.424V187.944C341.41 186.757 341.41 185.966 341.806 184.779C342.201 183.592 342.597 182.801 342.993 181.615C343.388 180.823 344.179 179.637 344.97 178.846C345.762 178.054 346.553 177.263 347.344 176.868L372.265 162.627C373.452 163.419 373.848 163.419 374.243 163.023Z" fill="#091B2D"/>
<path d="M87.596 130.153C87.596 123.746 83.1606 120.79 77.2467 124.239L36.8352 147.894C31.4142 151.344 26.4859 159.229 26.4859 165.635V169.578L25.0075 170.563L26.4859 173.027V183.869L24.5146 188.797L26.4859 189.783V211.959C26.4859 218.365 30.9213 221.322 36.8352 217.873L77.2467 194.218C82.6678 190.768 87.596 182.883 87.596 176.477V130.153Z" fill="#2BA9E1"/>
<path d="M79.2184 123.253C79.7112 123.253 80.2041 122.76 80.6969 122.76C81.1897 122.76 81.6825 122.76 82.1753 122.76C82.6682 122.76 83.161 123.253 83.6538 123.253L73.3045 117.339C73.3045 117.339 72.8117 117.339 72.8117 116.847H72.3189H71.8261H71.3332H70.8404H70.3476C69.8548 116.847 69.8548 116.847 69.3619 116.847H68.8691C68.8691 116.847 68.8691 116.847 68.3763 116.847H67.8835C67.3906 116.847 66.8978 117.339 66.405 117.339L26.4863 141.98C25.5007 142.473 24.0222 143.458 23.0366 144.444L22.5438 144.937L22.0509 145.43C21.5581 145.922 21.5581 145.922 21.0653 146.415C21.0653 146.908 20.5725 146.908 20.5725 147.401C20.5725 147.894 20.0796 147.894 20.0796 148.386C20.0796 148.879 19.5868 148.879 19.5868 149.372C19.5868 149.865 19.094 149.865 19.094 150.358C19.094 150.85 18.6012 150.85 18.6012 151.343C18.6012 151.836 18.1083 151.836 18.1083 152.329C18.1083 152.822 17.6155 152.822 17.6155 153.314C17.6155 153.807 17.6155 153.807 17.1227 154.3V154.793V155.286C17.1227 155.778 17.1227 156.271 16.6299 156.271C16.6299 156.764 16.6299 157.257 16.6299 157.75C16.6299 158.243 16.6299 159.228 16.6299 159.721V206.538C16.6299 209.987 17.6155 211.959 19.5868 212.944L29.9361 218.858C27.9648 217.872 26.9792 215.408 26.9792 212.451V165.635C26.9792 164.156 27.472 162.185 27.9648 160.707C28.4576 159.228 29.4433 157.257 29.9361 155.778C30.9218 154.3 31.9074 152.822 32.893 151.343C33.8787 149.865 35.3572 148.879 36.8356 148.386L77.2471 124.732C77.7399 124.239 78.2328 123.746 79.2184 123.253C79.2184 123.746 79.2184 123.746 79.2184 123.253Z" fill="#091B2D"/>
</svg>
